<svg xmlns="http://www.w3.org/2000/svg" xmlns:xlink="http://www.w3.org/1999/xlink" width="500" zoomAndPan="magnify" viewBox="0 0 375 374.999991" height="500" preserveAspectRatio="xMidYMid meet" version="1.0"><defs><clipPath id="id1"><path d="M 9.324219 9.476562 L 365.457031 9.476562 L 365.457031 365.570312 L 9.324219 365.570312 Z M 9.324219 9.476562 " clip-rule="nonzero"/></clipPath></defs><g clip-path="url(#id1)"><path fill="rgb(21.958923%, 71.369934%, 100%)" d="M 273.339844 209.199219 L 148.25 281.414062 C 127.601562 293.34375 110.707031 283.582031 110.707031 259.742188 L 110.707031 115.292969 C 110.707031 91.453125 127.601562 81.707031 148.25 93.621094 L 273.339844 165.835938 C 293.992188 177.765625 293.992188 197.273438 273.339844 209.199219 Z M 187.386719 9.464844 C 89.042969 9.464844 9.324219 89.183594 9.324219 187.523438 C 9.324219 285.855469 89.042969 365.570312 187.386719 365.570312 C 285.726562 365.570312 365.445312 285.855469 365.445312 187.523438 C 365.445312 89.183594 285.726562 9.464844 187.386719 9.464844 " fill-opacity="1" fill-rule="nonzero"/></g></svg>