<svg xmlns="http://www.w3.org/2000/svg" xmlns:xlink="http://www.w3.org/1999/xlink" width="500" zoomAndPan="magnify" viewBox="0 0 375 374.999991" height="500" preserveAspectRatio="xMidYMid meet" version="1.0"><defs><clipPath id="id1"><path d="M 10.0625 10.0625 L 364.8125 10.0625 L 364.8125 364.8125 L 10.0625 364.8125 Z M 10.0625 10.0625 " clip-rule="nonzero"/></clipPath></defs><g clip-path="url(#id1)"><path fill="rgb(100%, 87.059021%, 34.899902%)" d="M 187.445312 10.046875 C 285.410156 10.046875 364.828125 89.464844 364.828125 187.429688 C 364.828125 285.394531 285.410156 364.8125 187.445312 364.8125 C 89.480469 364.8125 10.0625 285.394531 10.0625 187.429688 C 10.0625 89.464844 89.480469 10.046875 187.445312 10.046875 " fill-opacity="1" fill-rule="evenodd"/></g><path fill="rgb(100%, 100%, 100%)" d="M 141.628906 256.59375 C 139.5 257.578125 137.238281 258.070312 134.910156 258.070312 C 128.648438 258.070312 122.914062 254.398438 120.296875 248.722656 C 116.589844 240.664062 120.125 231.097656 128.175781 227.390625 C 130.304688 226.40625 132.566406 225.914062 134.890625 225.914062 C 141.148438 225.914062 146.882812 229.582031 149.503906 235.261719 C 153.210938 243.316406 149.675781 252.886719 141.628906 256.59375 Z M 173.789062 247.316406 L 169.269531 245.652344 C 169.625 242.363281 169.515625 239.007812 168.898438 235.667969 L 173.253906 233.660156 C 175.980469 232.410156 177.167969 229.171875 175.914062 226.445312 L 173.367188 220.925781 C 172.117188 218.199219 168.882812 217 166.160156 218.261719 L 161.800781 220.269531 C 159.664062 217.628906 157.191406 215.359375 154.457031 213.488281 L 156.121094 208.984375 C 157.164062 206.167969 155.71875 203.035156 152.910156 201.996094 L 147.203125 199.886719 C 144.480469 198.890625 141.222656 200.386719 140.222656 203.097656 L 138.558594 207.613281 C 135.265625 207.261719 131.910156 207.382812 128.574219 207.992188 L 126.566406 203.640625 C 125.3125 200.910156 122.078125 199.722656 119.359375 200.972656 L 113.832031 203.511719 C 111.113281 204.773438 109.914062 208.007812 111.167969 210.726562 L 113.171875 215.085938 C 110.539062 217.222656 108.265625 219.695312 106.394531 222.433594 L 101.886719 220.769531 C 99.167969 219.753906 95.90625 221.253906 94.902344 223.980469 L 92.800781 229.6875 C 92.578125 230.285156 92.464844 230.902344 92.460938 231.523438 L 92.460938 231.652344 C 92.472656 232.402344 92.636719 233.144531 92.957031 233.84375 C 93.570312 235.160156 94.65625 236.167969 96.011719 236.667969 L 100.535156 238.332031 C 100.167969 241.625 100.285156 244.988281 100.902344 248.320312 L 96.542969 250.324219 C 93.824219 251.574219 92.632812 254.8125 93.878906 257.535156 L 96.433594 263.058594 C 97.683594 265.785156 100.914062 266.976562 103.632812 265.722656 L 108 263.71875 C 110.132812 266.359375 112.609375 268.628906 115.339844 270.496094 L 113.671875 275.003906 C 113.164062 276.367188 113.226562 277.839844 113.839844 279.160156 C 114.441406 280.480469 115.527344 281.488281 116.894531 281.988281 L 122.601562 284.097656 C 123.957031 284.597656 125.433594 284.539062 126.757812 283.9375 C 128.074219 283.328125 129.074219 282.242188 129.578125 280.878906 L 131.242188 276.367188 C 134.535156 276.722656 137.890625 276.605469 141.230469 275.992188 L 143.238281 280.347656 C 144.488281 283.066406 147.726562 284.265625 150.445312 283.007812 L 155.972656 280.464844 C 158.691406 279.210938 159.890625 275.976562 158.628906 273.257812 L 156.621094 268.894531 C 159.261719 266.765625 161.53125 264.289062 163.402344 261.550781 L 167.914062 263.226562 C 169.277344 263.726562 170.75 263.667969 172.078125 263.058594 C 173.386719 262.449219 174.390625 261.363281 174.890625 260.007812 L 177.003906 254.296875 C 178.039062 251.488281 176.597656 248.355469 173.789062 247.316406 " fill-opacity="1" fill-rule="nonzero"/><path fill="rgb(100%, 100%, 100%)" d="M 277.0625 162.492188 L 270.25 159.980469 C 270.792969 155.011719 270.613281 149.949219 269.679688 144.910156 L 276.261719 141.882812 C 280.371094 139.996094 282.167969 135.101562 280.277344 130.988281 L 276.441406 122.648438 C 274.542969 118.542969 269.667969 116.734375 265.558594 118.625 L 258.972656 121.667969 C 255.746094 117.683594 252.011719 114.257812 247.894531 111.429688 L 250.40625 104.621094 C 251.96875 100.378906 249.792969 95.652344 245.550781 94.082031 L 236.933594 90.894531 C 232.828125 89.382812 227.914062 91.648438 226.394531 95.75 L 223.882812 102.5625 C 218.914062 102.03125 213.851562 102.210938 208.8125 103.132812 L 205.777344 96.5625 C 203.890625 92.449219 199.003906 90.648438 194.898438 92.542969 L 186.550781 96.378906 C 182.445312 98.269531 180.644531 103.15625 182.53125 107.265625 L 185.570312 113.84375 C 181.589844 117.070312 178.160156 120.804688 175.332031 124.9375 L 168.53125 122.414062 C 164.421875 120.890625 159.511719 123.15625 157.984375 127.265625 L 154.8125 135.886719 C 154.050781 137.945312 154.132812 140.171875 155.054688 142.160156 C 155.972656 144.152344 157.617188 145.671875 159.660156 146.417969 L 166.472656 148.9375 C 165.933594 153.902344 166.109375 158.976562 167.050781 164.011719 L 160.464844 167.039062 C 156.355469 168.933594 154.554688 173.816406 156.449219 177.917969 L 160.285156 186.269531 C 162.179688 190.371094 167.066406 192.179688 171.175781 190.285156 L 177.753906 187.253906 C 180.976562 191.242188 184.714844 194.664062 188.839844 197.484375 L 186.328125 204.292969 C 185.5625 206.351562 185.648438 208.578125 186.570312 210.570312 C 187.480469 212.558594 189.125 214.070312 191.175781 214.835938 L 199.789062 218.015625 C 201.847656 218.773438 204.074219 218.6875 206.0625 217.777344 C 208.054688 216.859375 209.574219 215.21875 210.328125 213.160156 L 212.847656 206.351562 C 217.8125 206.886719 222.878906 206.710938 227.921875 205.78125 L 230.945312 212.359375 C 232.839844 216.464844 237.722656 218.277344 241.835938 216.382812 L 250.171875 212.535156 C 254.289062 210.644531 256.082031 205.765625 254.1875 201.648438 L 251.160156 195.070312 C 255.144531 191.84375 258.574219 188.113281 261.394531 183.992188 L 268.199219 186.507812 C 270.257812 187.265625 272.488281 187.179688 274.480469 186.261719 C 276.464844 185.34375 277.984375 183.707031 278.738281 181.65625 L 281.921875 173.035156 C 283.488281 168.796875 281.308594 164.0625 277.0625 162.492188 Z M 231.945312 183.933594 C 227.636719 185.90625 223.082031 186.910156 218.378906 186.910156 C 205.75 186.910156 194.179688 179.507812 188.894531 168.035156 C 181.410156 151.785156 188.539062 132.476562 204.789062 124.992188 C 209.082031 123.011719 213.644531 122.011719 218.34375 122.011719 C 230.972656 122.011719 242.554688 129.414062 247.835938 140.878906 C 255.3125 157.140625 248.1875 176.445312 231.945312 183.933594 " fill-opacity="1" fill-rule="nonzero"/></svg>