<svg xmlns="http://www.w3.org/2000/svg" xmlns:xlink="http://www.w3.org/1999/xlink" width="500" zoomAndPan="magnify" viewBox="0 0 375 374.999991" height="500" preserveAspectRatio="xMidYMid meet" version="1.0"><defs><clipPath id="id1"><path d="M 74.25 81.359375 L 301.054688 81.359375 L 301.054688 302.550781 L 74.25 302.550781 Z M 74.25 81.359375 " clip-rule="nonzero"/></clipPath></defs><path fill="rgb(78.039551%, 81.568909%, 84.709167%)" d="M 187.5 10.308594 C 89.640625 10.308594 10.308594 89.640625 10.308594 187.5 C 10.308594 285.359375 89.640625 364.691406 187.5 364.691406 C 285.359375 364.691406 364.691406 285.359375 364.691406 187.5 C 364.691406 89.640625 285.359375 10.308594 187.5 10.308594 " fill-opacity="1" fill-rule="nonzero"/><g clip-path="url(#id1)"><path fill="rgb(100%, 100%, 100%)" d="M 166.652344 270.445312 C 167.277344 271.535156 168.0625 272.519531 168.925781 273.40625 L 185.015625 289.480469 C 185.839844 290.304688 186.746094 291.03125 187.714844 291.632812 L 184.835938 294.535156 C 178.792969 300.152344 169.332031 299.8125 163.691406 293.769531 C 158.335938 288.027344 158.355469 279.085938 163.734375 273.347656 Z M 233.765625 81.359375 C 216.507812 81.398438 199.914062 88.105469 187.453125 100.070312 C 160.511719 74.59375 118.046875 75.800781 92.59375 102.75 C 68.148438 128.609375 68.128906 169.054688 92.554688 194.9375 L 89.25 198.257812 C 81.839844 205.652344 81.839844 217.675781 89.25 225.066406 C 94.324219 230.144531 101.835938 231.9375 108.640625 229.660156 C 105.339844 239.609375 110.695312 250.34375 120.640625 253.648438 C 124.527344 254.957031 128.738281 254.957031 132.625 253.648438 C 129.320312 263.597656 134.695312 274.332031 144.644531 277.636719 C 148.53125 278.945312 152.71875 278.925781 156.605469 277.636719 C 153.324219 287.585938 158.71875 298.320312 168.664062 301.605469 C 175.453125 303.839844 182.921875 302.085938 187.996094 297.03125 L 188.539062 296.507812 L 191.679688 293.347656 C 199.652344 295.5 207.871094 290.789062 210.023438 282.8125 C 211.414062 277.65625 209.945312 272.117188 206.15625 268.332031 L 190.089844 252.257812 C 184.230469 246.417969 174.765625 246.4375 168.949219 252.277344 C 165.261719 255.964844 163.773438 261.320312 165 266.378906 L 161.78125 269.578125 C 156.324219 275.78125 146.878906 276.386719 140.699219 270.929688 C 134.496094 265.472656 133.890625 256.023438 139.347656 249.820312 C 139.570312 249.558594 139.792969 249.316406 140.054688 249.074219 L 166.914062 222.207031 C 167.679688 221.402344 167.660156 220.132812 166.875 219.367188 C 166.089844 218.601562 164.839844 218.601562 164.074219 219.367188 L 137.195312 246.234375 C 131.273438 251.976562 121.808594 251.835938 116.070312 245.914062 C 110.433594 240.113281 110.433594 230.886719 116.070312 225.066406 L 142.933594 198.21875 C 143.675781 197.394531 143.617188 196.125 142.792969 195.378906 C 142.027344 194.675781 140.859375 194.675781 140.09375 195.378906 L 113.234375 222.246094 C 107.394531 228.089844 97.929688 228.089844 92.089844 222.246094 C 86.25 216.40625 86.25 206.941406 92.089844 201.097656 L 156.746094 136.40625 C 160.449219 132.679688 166.449219 132.679688 170.175781 136.386719 C 170.175781 136.386719 170.175781 136.386719 170.175781 136.40625 L 185.015625 151.230469 C 192.285156 158.761719 204.304688 158.984375 211.835938 151.691406 C 219.367188 144.421875 219.566406 132.398438 212.300781 124.863281 C 212.136719 124.703125 211.996094 124.5625 211.835938 124.402344 L 190.3125 102.890625 C 215.761719 79.082031 255.691406 80.414062 279.492188 105.871094 C 303.25 131.269531 301.984375 171.089844 276.671875 194.9375 L 262.015625 180.292969 C 256.175781 174.453125 246.710938 174.453125 240.871094 180.292969 C 235.03125 186.132812 235.03125 195.601562 240.871094 201.441406 L 256.960938 217.535156 C 262.777344 223.375 272.242188 223.394531 278.101562 217.574219 C 283.417969 212.257812 283.980469 203.839844 279.390625 197.875 C 306.675781 172.761719 308.425781 130.28125 283.316406 103.011719 C 270.570312 89.175781 252.589844 81.300781 233.765625 81.359375 " fill-opacity="1" fill-rule="nonzero"/></g><path fill="rgb(100%, 100%, 100%)" d="M 230.140625 244.363281 L 214.070312 228.269531 C 208.230469 222.429688 198.769531 222.429688 192.929688 228.269531 C 187.089844 234.109375 187.089844 243.578125 192.929688 249.417969 L 208.996094 265.511719 C 214.835938 271.351562 224.300781 271.351562 230.140625 265.511719 C 235.980469 259.671875 235.980469 250.203125 230.140625 244.363281 " fill-opacity="1" fill-rule="nonzero"/><path fill="rgb(100%, 100%, 100%)" d="M 216.910156 225.429688 L 232.976562 241.523438 C 238.839844 247.34375 248.300781 247.324219 254.121094 241.460938 C 259.917969 235.640625 259.917969 226.195312 254.121094 220.375 L 238.03125 204.28125 C 232.074219 198.582031 222.609375 198.804688 216.910156 204.765625 C 211.375 210.546875 211.375 219.648438 216.910156 225.429688 " fill-opacity="1" fill-rule="nonzero"/></svg>